<?xml version="1.0" standalone="no"?>
<!DOCTYPE svg PUBLIC "-//W3C//DTD SVG 20010904//EN"
 "http://www.w3.org/TR/2001/REC-SVG-20010904/DTD/svg10.dtd">
<svg version="1.0" xmlns="http://www.w3.org/2000/svg"
 width="700.000000pt" height="700.000000pt" viewBox="0 0 700.000000 700.000000"
 preserveAspectRatio="xMidYMid meet">
<metadata>
Created by potrace 1.11, written by Peter Selinger 2001-2013
</metadata>
<g transform="translate(0.000000,700.000000) scale(0.100000,-0.100000)"
fill="#000000" stroke="none">
<path d="M780 6629 c-178 -23 -316 -163 -341 -347 -6 -40 -8 -802 -7 -1892 3
-2043 -3 -1867 75 -1980 49 -70 120 -123 200 -149 60 -20 85 -21 501 -22 414
0 436 -1 412 -17 -170 -116 -484 -419 -649 -627 -318 -400 -587 -926 -557
-1088 8 -42 54 -100 97 -123 42 -21 5936 -21 5977 0 62 33 102 96 102 163 0
115 -273 642 -490 947 -177 248 -437 528 -633 681 l-76 60 437 5 c405 5 441 7
485 25 105 43 198 142 235 250 16 47 17 176 20 1875 1 1090 -1 1852 -7 1892
-26 189 -162 323 -351 348 -93 12 -5337 11 -5430 -1z m5418 -2188 c2 -1453 0
-1826 -10 -1833 -15 -9 -5348 -11 -5372 -2 -15 6 -16 176 -16 1828 0 1003 3
1826 7 1829 3 4 1217 6 2697 5 l2691 -3 3 -1824z m-1541 -2217 c71 -23 263
-116 357 -173 319 -193 642 -526 894 -922 73 -114 181 -306 210 -371 l12 -28
-2641 0 -2641 0 59 113 c209 397 539 792 878 1049 165 125 400 258 565 319
l75 28 1092 1 c970 0 1098 -2 1140 -16z"/>
<path d="M1132 6069 c-20 -6 -40 -22 -52 -42 -20 -31 -20 -61 -20 -1590 0
-1437 1 -1561 17 -1587 9 -16 27 -33 40 -39 34 -16 4732 -16 4766 0 13 6 31
23 40 39 16 26 17 150 17 1587 0 1525 0 1559 -20 1590 -13 21 -31 35 -57 42
-50 14 -4683 14 -4731 0z m803 -502 l360 -123 3 -50 3 -49 -368 -124 c-202
-68 -374 -126 -381 -129 -10 -3 -12 8 -10 48 l3 53 293 98 c162 54 296 100
298 102 3 3 -129 49 -293 104 l-298 100 -3 52 c-3 47 -1 52 15 47 10 -3 180
-61 378 -129z"/>
</g>
</svg>
